<svg width="28" height="28" viewBox="0 0 28 28" fill="none" xmlns="http://www.w3.org/2000/svg">
<path d="M8.24837 9.43227L8.24886 9.43148C9.61531 7.25008 11.5251 6.2 14.1033 6.2C15.4462 6.2 16.8771 6.71691 17.9704 7.58233C19.0631 8.44725 19.8 9.64391 19.8 10.9985C19.8 12.1326 19.4028 12.906 18.8625 13.4791C18.3148 14.0599 17.6163 14.4399 16.9967 14.7743L16.9967 14.7743L16.995 14.7753C16.5782 15.0054 16.2448 15.3516 16.0157 15.685C15.9007 15.8523 15.8097 16.0198 15.7467 16.1727C15.6853 16.3218 15.6447 16.4713 15.6447 16.599C15.6447 16.6879 15.6072 16.7951 15.5403 16.8788C15.474 16.9617 15.3967 17.0011 15.3248 17.0011H12.2092C12.1733 17.0011 12.1087 16.972 12.0403 16.8534C11.9756 16.7414 11.9403 16.6007 11.9403 16.501V15.9374C11.9403 15.2508 12.2955 14.5935 12.8097 14.0363C13.3226 13.4806 13.9748 13.0456 14.5217 12.8058C15.0281 12.5842 15.4154 12.3584 15.6745 12.0679C15.9421 11.7679 16.0592 11.4149 16.0592 10.974C16.0592 10.53 15.7615 10.1448 15.3639 9.8814C14.9612 9.6146 14.4226 9.44734 13.8597 9.44734C13.2415 9.44734 12.667 9.63068 12.3455 9.84496L12.3455 9.84495L12.3437 9.84622C12.0058 10.077 11.678 10.3939 10.9148 11.321C10.8418 11.405 10.7391 11.4495 10.6642 11.4495C10.5968 11.4495 10.5293 11.4285 10.4522 11.3818L8.32941 9.82625C8.32926 9.82614 8.32912 9.82604 8.32898 9.82593C8.18936 9.72207 8.16422 9.56523 8.24837 9.43227ZM15.3757 18.1991C15.5597 18.1991 15.6956 18.3407 15.6956 18.4997V21.4995C15.6956 21.6585 15.5597 21.8 15.3757 21.8H12.2601C12.0789 21.8 11.9403 21.6576 11.9403 21.4995V18.4997C11.9403 18.3416 12.0789 18.1991 12.2601 18.1991H15.3757Z" fill="#A4D28F" stroke="#706c73" stroke-width="0.4"/>
<path fill-rule="evenodd" clip-rule="evenodd" d="M14 25.2C20.1856 25.2 25.2 20.1856 25.2 14C25.2 7.81441 20.1856 2.8 14 2.8C7.81441 2.8 2.8 7.81441 2.8 14C2.8 20.1856 7.81441 25.2 14 25.2ZM14 28C21.732 28 28 21.732 28 14C28 6.26801 21.732 0 14 0C6.26801 0 0 6.26801 0 14C0 21.732 6.26801 28 14 28Z" fill="#A4D28F"/>
</svg>
