<svg width="26" height="26" viewBox="0 0 26 26" fill="none" xmlns="http://www.w3.org/2000/svg">
<path d="M24.9641 24.8688L24.9642 24.8687C25.412 24.4209 25.412 23.6948 24.9641 23.247C24.9641 23.247 24.9641 23.247 24.964 23.247L17.9165 16.1994C19.1773 14.5731 19.928 12.5308 19.928 10.314C19.928 5.00433 15.6236 0.7 10.314 0.7C5.00433 0.7 0.7 5.00433 0.7 10.314C0.7 15.6236 5.00433 19.928 10.314 19.928C12.5797 19.928 14.6629 19.1439 16.3062 17.8326L23.3424 24.8687L23.3424 24.8688C23.7903 25.3165 24.5162 25.3165 24.9641 24.8688ZM17.6345 10.314C17.6345 14.357 14.357 17.6345 10.314 17.6345C6.27097 17.6345 2.99345 14.357 2.99345 10.314C2.99345 6.27097 6.27097 2.99345 10.314 2.99345C14.357 2.99345 17.6345 6.27097 17.6345 10.314Z" fill="#706c73" stroke="#706c73" stroke-width="0.6" stroke-miterlimit="16"/>
</svg>
