<svg width="30" height="33" viewBox="0 0 30 33" fill="none" xmlns="http://www.w3.org/2000/svg">
<path d="M24.025 22.235C23.2683 22.2349 22.52 22.3923 21.8282 22.697C21.1365 23.0017 20.5167 23.4469 20.0087 24.0041L11.0478 18.4898C11.553 17.2267 11.553 15.8195 11.0478 14.5564L20.0087 9.04218C20.864 9.97335 22.0203 10.578 23.2772 10.7514C24.5341 10.9247 25.8125 10.6559 26.8908 9.99147C27.9692 9.32703 28.7797 8.30882 29.1818 7.11321C29.584 5.9176 29.5526 4.6199 29.0929 3.44491C28.6333 2.26992 27.7744 1.29164 26.6651 0.679523C25.5558 0.0674107 24.2659 -0.139975 23.0189 0.0932876C21.7718 0.326551 20.6462 0.98577 19.8369 1.95676C19.0277 2.92774 18.5858 4.14933 18.5878 5.40992C18.5949 6.05524 18.7234 6.69354 18.9667 7.29192L10.0058 12.8815C9.49201 12.3265 8.8684 11.883 8.17404 11.5786C7.47968 11.2741 6.72953 11.1154 5.97056 11.1124C5.06092 11.11 4.16511 11.3336 3.36462 11.7628C2.56413 12.192 1.88436 12.8132 1.38716 13.5699C0.889958 14.3266 0.591096 15.1948 0.517761 16.0956C0.444426 16.9963 0.598947 17.9009 0.967265 18.7272C1.33558 19.5534 1.90601 20.2751 2.62666 20.8265C3.34731 21.378 4.19531 21.7416 5.09351 21.8845C5.99172 22.0274 6.91163 21.9449 7.76956 21.6445C8.62749 21.3442 9.39622 20.8355 10.0058 20.1648L18.9667 25.6791C18.7234 26.2774 18.5949 26.9157 18.5878 27.5611C18.5841 28.6347 18.9014 29.6852 19.4994 30.5794C20.0975 31.4736 20.9495 32.1712 21.9472 32.5838C22.9449 32.9964 24.0435 33.1053 25.1037 32.8968C26.1638 32.6882 27.1378 32.1716 27.9019 31.4125C28.6661 30.6533 29.1862 29.6858 29.3961 28.6327C29.606 27.5795 29.4964 26.4881 29.0811 25.497C28.6657 24.5058 27.9635 23.6595 27.0633 23.0653C26.1632 22.4712 25.1057 22.156 24.025 22.1597V22.235ZM20.577 5.40992C20.577 4.72796 20.7808 4.06134 21.1626 3.49457C21.5444 2.92779 22.087 2.48638 22.7216 2.22627C23.3562 1.96616 24.0543 1.89906 24.7273 2.03349C25.4003 2.16791 26.018 2.4978 26.5021 2.98134C26.9862 3.46489 27.3149 4.08032 27.4465 4.74963C27.5781 5.41895 27.5068 6.11202 27.2415 6.741C26.9761 7.36998 26.5288 7.90656 25.9562 8.28273C25.3836 8.65889 24.7115 8.85771 24.025 8.85398C23.1088 8.84901 22.2318 8.48396 21.5857 7.83861C20.9397 7.19326 20.577 6.32009 20.577 5.40992ZM5.97056 19.9578C5.28407 19.9578 4.61303 19.7553 4.0425 19.376C3.47197 18.9967 3.02763 18.4577 2.76579 17.8273C2.50396 17.1969 2.43641 16.5035 2.57173 15.8349C2.70704 15.1663 3.03912 14.5526 3.52587 14.0717C4.01262 13.5908 4.63214 13.2643 5.30589 13.1336C5.97965 13.0028 6.67732 13.0737 7.31047 13.3373C7.94362 13.6008 8.48376 14.0452 8.86242 14.614C9.24108 15.1829 9.44122 15.8506 9.43747 16.5325C9.43246 17.4427 9.06499 18.3139 8.41536 18.9557C7.76573 19.5975 6.88677 19.9578 5.97056 19.9578ZM20.577 27.6363C20.577 26.9544 20.7808 26.2877 21.1626 25.721C21.5444 25.1542 22.087 24.7128 22.7216 24.4527C23.3562 24.1926 24.0543 24.1255 24.7273 24.2599C25.4003 24.3943 26.018 24.7242 26.5021 25.2077C26.9862 25.6913 27.3149 26.3067 27.4465 26.976C27.5781 27.6454 27.5068 28.3384 27.2415 28.9674C26.9761 29.5964 26.5288 30.133 25.9562 30.5091C25.3836 30.8853 24.7115 31.0841 24.025 31.0804C23.1088 31.0754 22.2318 30.7104 21.5857 30.065C20.9397 29.4197 20.577 28.5465 20.577 27.6363Z" fill="#809B70"/>
</svg>
