<svg width="193" height="39" viewBox="0 0 193 39" fill="none" xmlns="http://www.w3.org/2000/svg">
<path d="M14.4727 38.1695C20.8624 38.1695 24.9193 32.8498 24.9193 24.8956C24.9193 17.0428 20.9638 11.6218 14.7263 11.6218C11.0244 11.6218 8.23522 13.5471 6.91672 16.1815V0.830547H0.831336V37.5615H5.9532L6.61245 33.4578C7.93095 36.2949 10.7708 38.1695 14.4727 38.1695ZM12.5964 33.5084C8.89447 33.5084 6.8153 30.5193 6.8153 25.8076V24.085C6.8153 19.272 8.94518 16.2829 12.5964 16.2829C16.4505 16.2829 18.5804 19.6267 18.5804 24.8956C18.5804 30.266 16.3998 33.5084 12.5964 33.5084Z" fill="#706C73"/>
<path d="M52.4596 23.6291C52.4596 15.8776 48.2506 11.6218 40.8974 11.6218C33.3414 11.6218 28.7266 16.7895 28.7266 25.149C28.7266 33.4578 33.3921 38.1695 41.151 38.1695C46.3742 38.1695 50.3297 35.7376 52.2568 31.3299L47.5406 29.202C46.425 31.9379 44.2444 33.4071 41.4045 33.4071C37.3983 33.4071 34.7106 30.6713 34.6599 26.4155H52.4596V23.6291ZM46.425 22.4131H34.6599C34.7613 18.2081 36.9419 15.6749 40.7453 15.6749C44.3965 15.6749 46.4757 17.8534 46.425 22.0078V22.4131Z" fill="#706C73"/>
<path d="M67.2646 38.1695C73.8571 38.1695 77.6605 34.927 77.6605 30.1646C77.6605 26.1622 75.5306 23.7304 70.6623 22.8691L65.6926 21.9572C63.4613 21.5519 62.2949 20.7919 62.2949 19.0694C62.2949 17.0935 63.9177 16.0296 66.7575 16.0296C70.1045 16.0296 72.3358 17.4481 73.5528 19.728L77.7619 17.4481C76.5448 13.8004 72.4879 11.6218 67.0618 11.6218C60.6214 11.6218 56.7166 14.8643 56.7166 19.424C56.7166 23.4771 59.2522 25.9596 63.9684 26.8209L68.4817 27.6315C71.0173 28.0368 72.1329 28.7461 72.1329 30.5699C72.1329 32.3938 70.5102 33.7111 67.366 33.7111C63.7655 33.7111 61.2299 32.0898 60.1143 29.2527L55.601 31.2792C57.173 35.7376 61.4835 38.1695 67.2646 38.1695Z" fill="#706C73"/>
<path d="M93.8929 38.1695C101.195 38.1695 106.368 33.3564 106.368 24.845C106.368 16.3842 101.195 11.6218 93.8929 11.6218C86.5905 11.6218 81.4686 16.3842 81.4686 24.845C81.4686 33.3564 86.5905 38.1695 93.8929 38.1695ZM93.8929 33.5591C89.9881 33.5591 87.7061 30.6206 87.7061 24.845C87.7061 19.0694 89.9881 16.2322 93.8929 16.2322C97.7977 16.2322 100.13 19.0694 100.13 24.845C100.13 30.6206 97.7977 33.5591 93.8929 33.5591Z" fill="#706C73"/>
<path d="M119.976 38.1695C123.576 38.1695 126.67 35.9909 127.836 32.8498V37.5615H133.617V12.2298H127.532V26.2636C127.532 30.5193 125.3 33.3058 121.903 33.3058C119.012 33.3058 117.44 31.2792 117.44 27.5808V12.2298H111.355V28.4927C111.355 34.4204 113.738 38.1695 119.976 38.1695Z" fill="#706C73"/>
<path d="M146.72 37.5615V24.1357C146.72 19.3227 148.85 16.4855 152.4 16.4855C155.595 16.4855 157.167 18.4614 157.167 22.4638V37.5615H163.252V21.8558C163.252 15.067 160.412 11.6218 154.885 11.6218C150.929 11.6218 148.14 13.4457 146.466 17.1442V12.2298H140.635V37.5615H146.72Z" fill="#706C73"/>
<path d="M178.274 38.1695C182.128 38.1695 185.018 36.2442 186.388 33.0018V37.5615H192.169V0.830547H186.083V15.8269C184.613 12.9898 182.077 11.6218 178.781 11.6218C172.442 11.6218 168.081 16.9922 168.081 24.9463C168.081 32.8498 172.188 38.1695 178.274 38.1695ZM180.404 33.5084C176.651 33.5084 174.42 30.266 174.42 24.845C174.42 19.424 176.6 16.2829 180.353 16.2829C183.953 16.2829 186.185 19.1707 186.185 24.1357V25.7569C186.185 30.5193 183.953 33.5084 180.404 33.5084Z" fill="#706C73"/>
<path fill-rule="evenodd" clip-rule="evenodd" d="M5.9532 37.5615H0.831336V0.830547H6.91672V16.1815C7.14915 15.7171 7.42728 15.2748 7.74805 14.8611C9.24694 12.9281 11.6769 11.6218 14.7263 11.6218C20.9638 11.6218 24.9193 17.0428 24.9193 24.8956C24.9193 32.8498 20.8624 38.1695 14.4727 38.1695C11.2998 38.1695 8.76015 36.7924 7.26894 34.6124C7.02033 34.2489 6.80086 33.8632 6.61245 33.4578L5.9532 37.5615ZM7.08659 35.7475L6.77403 37.6931C6.70933 38.0958 6.36148 38.392 5.9532 38.392H0.831336C0.372202 38.392 0 38.0202 0 37.5615V0.830547C0 0.371849 0.372202 0 0.831336 0H6.91672C7.37585 0 7.74805 0.371849 7.74805 0.830547V13.5971C9.41486 11.8871 11.8273 10.7913 14.7263 10.7913C18.1139 10.7913 20.9044 12.2753 22.825 14.813C24.73 17.3302 25.7506 20.8396 25.7506 24.8956C25.7506 29.0047 24.7034 32.5189 22.7479 35.0259C20.7769 37.5527 17.9229 39 14.4727 39C11.3657 39 8.77521 37.7698 7.08659 35.7475ZM52.5989 30.573C53.0137 30.7601 53.2008 31.2457 53.0186 31.6623C50.9451 36.405 46.6678 39 41.151 39C37.1013 39 33.7582 37.7664 31.4304 35.3511C29.1064 32.9398 27.8953 29.4554 27.8953 25.149C27.8953 20.8217 29.0907 17.2231 31.3597 14.696C33.6384 12.1581 36.9199 10.7913 40.8974 10.7913C44.7337 10.7913 47.8648 11.9049 50.033 14.1407C52.1976 16.3728 53.291 19.6083 53.291 23.6291V26.4155C53.291 26.8742 52.9188 27.2461 52.4596 27.2461H35.5404C35.708 28.8028 36.2887 30.0452 37.146 30.9293C38.1493 31.964 39.5974 32.5765 41.4045 32.5765C43.8968 32.5765 45.7789 31.3207 46.7707 28.8887C46.8559 28.6797 47.0226 28.5144 47.2324 28.4307C47.4421 28.347 47.6769 28.3522 47.8828 28.4451L52.5989 30.573ZM34.7048 27.2461C35.0748 31.0239 37.6654 33.4071 41.4045 33.4071C44.0334 33.4071 46.0974 32.148 47.2745 29.7906C47.369 29.6015 47.4577 29.4052 47.5406 29.202L52.2568 31.3299C52.2136 31.4288 52.1693 31.5266 52.1241 31.6235C52.0518 31.7782 51.9769 31.9304 51.8995 32.08C49.8646 36.0127 46.07 38.1695 41.151 38.1695C33.3921 38.1695 28.7266 33.4578 28.7266 25.149C28.7266 16.7895 33.3414 11.6218 40.8974 11.6218C48.2506 11.6218 52.4596 15.8776 52.4596 23.6291V26.4155H34.6599C34.6633 26.6993 34.6784 26.9762 34.7048 27.2461ZM46.425 22.0078C46.4262 21.9087 46.4262 21.8107 46.425 21.7138C46.4244 21.6699 46.4236 21.6261 46.4226 21.5826C46.3295 17.7049 44.2698 15.6749 40.7453 15.6749C37.1993 15.6749 35.0639 17.8768 34.7089 21.5826C34.6831 21.8516 34.6667 22.1285 34.6599 22.4131H46.425V22.0078ZM45.591 21.5826C45.5465 19.8571 45.0839 18.6382 44.3587 17.8427C43.5865 16.9956 42.4039 16.5055 40.7453 16.5055C39.0395 16.5055 37.7851 17.0662 36.9351 18.0195C36.2002 18.8438 35.7051 20.0323 35.5443 21.5826H45.591ZM65.6926 21.9572L70.6623 22.8691C75.5306 23.7304 77.6605 26.1622 77.6605 30.1646C77.6605 34.927 73.8571 38.1695 67.2646 38.1695C61.4835 38.1695 57.173 35.7376 55.601 31.2792L60.1143 29.2527C60.2056 29.485 60.3065 29.7092 60.4167 29.925C61.6523 32.3445 64.0603 33.7111 67.366 33.7111C70.5102 33.7111 72.1329 32.3938 72.1329 30.5699C72.1329 28.7461 71.0173 28.0368 68.4817 27.6315L63.9684 26.8209C59.2522 25.9596 56.7166 23.4771 56.7166 19.424C56.7166 14.8643 60.6214 11.6218 67.0618 11.6218C72.4879 11.6218 76.5448 13.8004 77.7619 17.4481L73.5528 19.728C73.5363 19.697 73.5196 19.6662 73.5027 19.6355C72.2749 17.4098 70.059 16.0296 66.7575 16.0296C63.9177 16.0296 62.2949 17.0935 62.2949 19.0694C62.2949 20.7919 63.4613 21.5519 65.6926 21.9572ZM70.8072 22.0513L65.8427 21.1403L65.8413 21.14C64.7637 20.9443 64.0819 20.6828 63.6763 20.3587C63.3262 20.0788 63.1262 19.7095 63.1262 19.0694C63.1262 18.346 63.404 17.8491 63.9264 17.4969C64.4946 17.1137 65.4213 16.8601 66.7575 16.8601C69.8295 16.8601 71.7612 18.1368 72.8193 20.1188C72.9235 20.3141 73.1014 20.4597 73.3135 20.5234C73.5256 20.5871 73.7544 20.5636 73.9491 20.4581L78.1581 18.1783C78.5127 17.9862 78.6781 17.5677 78.5506 17.1855C77.1704 13.0489 72.6572 10.7913 67.0618 10.7913C63.7103 10.7913 60.9286 11.6345 58.9645 13.1568C56.983 14.6926 55.8853 16.8841 55.8853 19.424C55.8853 21.6373 56.5844 23.4918 57.9831 24.9036C59.365 26.2985 61.3571 27.1883 63.8189 27.6379L68.3346 28.4489L68.3503 28.4516C69.5977 28.651 70.3318 28.9061 70.7526 29.2281C71.0999 29.4939 71.3016 29.8568 71.3016 30.5699C71.3016 31.2029 71.0349 31.7372 70.4525 32.1435C69.8406 32.5705 68.8362 32.8805 67.366 32.8805C64.0493 32.8805 61.8588 31.4176 60.8881 28.949C60.8049 28.7375 60.6387 28.5693 60.4281 28.4836C60.2175 28.3978 59.9809 28.402 59.7735 28.4951L55.2602 30.5217C54.866 30.6987 54.6733 31.1479 54.8169 31.5552C56.543 36.4507 61.2567 39 67.2646 39C70.6878 39 73.4881 38.1588 75.4512 36.6037C77.4342 35.033 78.4918 32.7875 78.4918 30.1646C78.4918 28.0111 77.9147 26.1788 76.5935 24.7709C75.2863 23.3779 73.3438 22.5004 70.8098 22.0517C70.809 22.0516 70.8081 22.0514 70.8072 22.0513ZM111.355 28.4927C111.355 34.4204 113.738 38.1695 119.976 38.1695C122.913 38.1695 125.513 36.7193 127.005 34.4793C127.341 33.9738 127.621 33.4281 127.836 32.8498V37.5615H133.617V12.2298H127.532V26.2636C127.532 30.5193 125.3 33.3058 121.903 33.3058C119.012 33.3058 117.44 31.2792 117.44 27.5808V12.2298H111.355V28.4927ZM127.005 35.8466V37.5615C127.005 38.0202 127.377 38.392 127.836 38.392H133.617C134.076 38.392 134.448 38.0202 134.448 37.5615V12.2298C134.448 11.7711 134.076 11.3993 133.617 11.3993H127.532C127.073 11.3993 126.7 11.7711 126.7 12.2298V26.2636C126.7 28.2542 126.178 29.8163 125.342 30.8621C124.519 31.8907 123.352 32.4752 121.903 32.4752C120.671 32.4752 119.816 32.0551 119.244 31.3203C118.646 30.5522 118.271 29.3299 118.271 27.5808V12.2298C118.271 11.7711 117.899 11.3993 117.44 11.3993H111.355C110.896 11.3993 110.523 11.7711 110.523 12.2298V28.4927C110.523 31.5455 111.133 34.1897 112.683 36.0802C114.259 38.003 116.684 39 119.976 39C122.776 39 125.31 37.7935 127.005 35.8466ZM147.551 37.5615C147.551 38.0202 147.179 38.392 146.72 38.392H140.635C140.176 38.392 139.803 38.0202 139.803 37.5615V12.2298C139.803 11.7711 140.176 11.3993 140.635 11.3993H146.466C146.926 11.3993 147.298 11.7711 147.298 12.2298V14.1831C147.903 13.438 148.59 12.8088 149.364 12.3017C150.924 11.2792 152.775 10.7913 154.885 10.7913C157.83 10.7913 160.187 11.7177 161.784 13.6669C163.356 15.5855 164.083 18.3655 164.083 21.8558V37.5615C164.083 38.0202 163.711 38.392 163.252 38.392H157.167C156.707 38.392 156.335 38.0202 156.335 37.5615V22.4638C156.335 20.5481 155.955 19.2744 155.331 18.4911C154.736 17.7448 153.816 17.3161 152.4 17.3161C150.874 17.3161 149.707 17.9121 148.896 19.0015C148.062 20.1213 147.551 21.8373 147.551 24.1357V37.5615ZM147.298 15.6019C146.995 16.0736 146.718 16.5877 146.466 17.1442V12.2298H140.635V37.5615H146.72V24.1357C146.72 19.3227 148.85 16.4855 152.4 16.4855C155.595 16.4855 157.167 18.4614 157.167 22.4638V37.5615H163.252V21.8558C163.252 15.067 160.412 11.6218 154.885 11.6218C151.524 11.6218 149.006 12.9382 147.298 15.6019ZM186.083 0.830547H192.169V37.5615H186.388V33.0018C186.154 33.5552 185.876 34.0703 185.556 34.544C184.003 36.8454 181.47 38.1695 178.274 38.1695C172.188 38.1695 168.081 32.8498 168.081 24.9463C168.081 16.9922 172.442 11.6218 178.781 11.6218C181.522 11.6218 183.738 12.5682 185.252 14.5191C185.558 14.9138 185.836 15.3495 186.083 15.8269V0.830547ZM185.252 13.2593C183.609 11.5965 181.388 10.7913 178.781 10.7913C175.355 10.7913 172.444 12.2512 170.406 14.7805C168.38 17.2959 167.249 20.8238 167.249 24.9463C167.249 29.0336 168.311 32.5317 170.237 35.0286C172.176 37.5426 174.963 39 178.274 39C181.306 39 183.827 37.8847 185.556 35.9055V37.5615C185.556 38.0202 185.928 38.392 186.388 38.392H192.169C192.628 38.392 193 38.0202 193 37.5615V0.830547C193 0.371849 192.628 0 192.169 0H186.083C185.624 0 185.252 0.371849 185.252 0.830547V13.2593ZM8.98761 30.9332C9.80698 32.0475 10.9988 32.6779 12.5964 32.6779C14.225 32.6779 15.4646 32.0013 16.3298 30.7451C17.2207 29.4515 17.749 27.4854 17.749 24.8956C17.749 22.356 17.2331 20.3874 16.3456 19.0795C15.4838 17.8096 14.2439 17.1134 12.5964 17.1134C11.0276 17.1134 9.83484 17.741 9.00734 18.8698C8.15709 20.0296 7.64663 21.7866 7.64663 24.085V25.8076C7.64663 28.0561 8.14473 29.7869 8.98761 30.9332ZM103.465 35.2779C101.078 37.7315 97.7304 39 93.8929 39C90.0551 39 86.7195 37.7312 84.3446 35.2762C81.9711 32.8227 80.6373 29.268 80.6373 24.845C80.6373 20.4458 81.972 16.9154 84.347 14.4809C86.7227 12.0457 90.0577 10.7913 93.8929 10.7913C97.7278 10.7913 101.074 12.0454 103.463 14.4792C105.85 16.9129 107.199 20.4435 107.199 24.845C107.199 29.2703 105.851 32.8252 103.465 35.2779ZM90.0079 30.8799C90.8929 32.0976 92.1761 32.7285 93.8929 32.7285C95.6108 32.7285 96.9084 32.0966 97.806 30.8761C98.7318 29.6173 99.2991 27.6396 99.2991 24.845C99.2991 22.0498 98.7316 20.1012 97.8102 18.8701C96.9172 17.6771 95.621 17.0628 93.8929 17.0628C92.1658 17.0628 90.8842 17.6761 90.0038 18.8663C89.0936 20.097 88.5374 22.0464 88.5374 24.845C88.5374 27.643 89.0933 29.6215 90.0079 30.8799ZM176.689 30.7382C177.562 32.0038 178.803 32.6779 180.404 32.6779C181.917 32.6779 183.115 32.0539 183.959 30.9222C184.822 29.7653 185.353 28.0203 185.353 25.7569V24.1357C185.353 21.764 184.819 19.9978 183.954 18.8457C183.111 17.7223 181.904 17.1134 180.353 17.1134C178.744 17.1134 177.518 17.7694 176.662 19.004C175.78 20.2769 175.251 22.2284 175.251 24.845C175.251 27.4578 175.791 29.4371 176.689 30.7382ZM12.5964 33.5084C8.89447 33.5084 6.8153 30.5193 6.8153 25.8076V24.085C6.8153 19.272 8.94518 16.2829 12.5964 16.2829C16.4505 16.2829 18.5804 19.6267 18.5804 24.8956C18.5804 30.266 16.3998 33.5084 12.5964 33.5084ZM93.8929 38.1695C101.195 38.1695 106.368 33.3564 106.368 24.845C106.368 16.3842 101.195 11.6218 93.8929 11.6218C86.5905 11.6218 81.4686 16.3842 81.4686 24.845C81.4686 33.3564 86.5905 38.1695 93.8929 38.1695ZM93.8929 33.5591C89.9881 33.5591 87.7061 30.6206 87.7061 24.845C87.7061 19.0694 89.9881 16.2322 93.8929 16.2322C97.7977 16.2322 100.13 19.0694 100.13 24.845C100.13 30.6206 97.7977 33.5591 93.8929 33.5591ZM174.42 24.845C174.42 30.266 176.651 33.5084 180.404 33.5084C183.953 33.5084 186.185 30.5193 186.185 25.7569V24.1357C186.185 19.1707 183.953 16.2829 180.353 16.2829C176.6 16.2829 174.42 19.424 174.42 24.845Z" fill="#706C73"/>
</svg>
