<svg width="147" height="30" viewBox="0 0 147 30" fill="none" xmlns="http://www.w3.org/2000/svg">
<path d="M11.0076 29.0583C15.8674 29.0583 18.953 25.0085 18.953 18.953C18.953 12.9747 15.9446 8.84769 11.2005 8.84769C8.38485 8.84769 6.2635 10.3133 5.26068 12.319V0.632294H0.632294V28.5955H4.52786L5.02927 25.4713C6.03208 27.6312 8.192 29.0583 11.0076 29.0583ZM9.58052 25.5099C6.76491 25.5099 5.18354 23.2343 5.18354 19.6473V18.3359C5.18354 14.6717 6.80348 12.3961 9.58052 12.3961C12.5118 12.3961 14.1318 14.9417 14.1318 18.953C14.1318 23.0414 12.4733 25.5099 9.58052 25.5099Z" fill="#FFFEF9"/>
<path d="M39.8995 17.9888C39.8995 12.0876 36.6982 8.84769 31.1055 8.84769C25.3586 8.84769 21.8488 12.7818 21.8488 19.1459C21.8488 25.4713 25.3972 29.0583 31.2984 29.0583C35.2711 29.0583 38.2796 27.207 39.7452 23.8514L36.1582 22.2315C35.3097 24.3142 33.6512 25.4328 31.4912 25.4328C28.4442 25.4328 26.4 23.35 26.3614 20.1101H39.8995V17.9888ZM35.3097 17.0631H26.3614C26.4386 13.8618 28.0971 11.9333 30.9898 11.9333C33.7669 11.9333 35.3482 13.5918 35.3097 16.7545V17.0631Z" fill="#FFFEF9"/>
<path d="M51.1598 29.0583C56.1739 29.0583 59.0666 26.5899 59.0666 22.9643C59.0666 19.9173 57.4467 18.0659 53.744 17.4102L49.9641 16.716C48.2671 16.4074 47.3799 15.8288 47.3799 14.5175C47.3799 13.0132 48.6142 12.2033 50.7741 12.2033C53.3197 12.2033 55.0168 13.2832 55.9425 15.0189L59.1438 13.2832C58.2181 10.5062 55.1325 8.84769 51.0055 8.84769C46.1071 8.84769 43.1373 11.3162 43.1373 14.7875C43.1373 17.8731 45.0657 19.763 48.6527 20.4187L52.0855 21.0358C54.014 21.3443 54.8625 21.8843 54.8625 23.2728C54.8625 24.6614 53.6283 25.6642 51.2369 25.6642C48.4985 25.6642 46.57 24.4299 45.7214 22.27L42.2887 23.8128C43.4844 27.207 46.7628 29.0583 51.1598 29.0583Z" fill="#FFFEF9"/>
<path d="M71.4126 29.0583C76.9667 29.0583 80.9008 25.3942 80.9008 18.9144C80.9008 12.4733 76.9667 8.84769 71.4126 8.84769C65.8586 8.84769 61.963 12.4733 61.963 18.9144C61.963 25.3942 65.8586 29.0583 71.4126 29.0583ZM71.4126 25.5485C68.4427 25.5485 66.7071 23.3114 66.7071 18.9144C66.7071 14.5175 68.4427 12.3575 71.4126 12.3575C74.3825 12.3575 76.1567 14.5175 76.1567 18.9144C76.1567 23.3114 74.3825 25.5485 71.4126 25.5485Z" fill="#FFFEF9"/>
<path d="M91.2505 29.0583C93.989 29.0583 96.3418 27.3998 97.2289 25.0085V28.5955H101.626V9.31053H96.9974V19.9944C96.9974 23.2343 95.3004 25.3556 92.7162 25.3556C90.5177 25.3556 89.322 23.8128 89.322 20.9972V9.31053H84.6936V21.6915C84.6936 26.2042 86.5064 29.0583 91.2505 29.0583Z" fill="#FFFEF9"/>
<path d="M111.592 28.5955V18.3745C111.592 14.7103 113.212 12.5504 115.911 12.5504C118.341 12.5504 119.537 14.0546 119.537 17.1017V28.5955H124.165V16.6388C124.165 11.4704 122.006 8.84769 117.801 8.84769C114.793 8.84769 112.672 10.2362 111.399 13.0518V9.31053H106.963V28.5955H111.592Z" fill="#FFFEF9"/>
<path d="M135.591 29.0583C138.522 29.0583 140.72 27.5927 141.762 25.1242V28.5955H146.159V0.632294H141.53V12.049C140.412 9.88908 138.483 8.84769 135.976 8.84769C131.155 8.84769 127.838 12.9361 127.838 18.9916C127.838 25.0085 130.962 29.0583 135.591 29.0583ZM137.21 25.5099C134.356 25.5099 132.659 23.0414 132.659 18.9144C132.659 14.7875 134.318 12.3961 137.172 12.3961C139.91 12.3961 141.607 14.5946 141.607 18.3745V19.6087C141.607 23.2343 139.91 25.5099 137.21 25.5099Z" fill="#FFFEF9"/>
<path fill-rule="evenodd" clip-rule="evenodd" d="M4.52786 28.5955H0.632294V0.632294H5.26068V12.319C5.43746 11.9654 5.649 11.6286 5.89298 11.3137C7.03299 9.84215 8.88119 8.84769 11.2005 8.84769C15.9446 8.84769 18.953 12.9747 18.953 18.953C18.953 25.0085 15.8674 29.0583 11.0076 29.0583C8.59434 29.0583 6.66275 28.0099 5.52858 26.3503C5.33949 26.0736 5.17256 25.78 5.02927 25.4713L4.52786 28.5955ZM5.38988 27.2145L5.15216 28.6957C5.10295 29.0023 4.83838 29.2278 4.52786 29.2278H0.632294C0.283088 29.2278 0 28.9447 0 28.5955V0.632294C0 0.283088 0.283088 0 0.632294 0H5.26068C5.60989 0 5.89298 0.283088 5.89298 0.632294V10.3515C7.16071 9.04961 8.99557 8.21539 11.2005 8.21539C13.777 8.21539 15.8994 9.34514 17.3601 11.2771C18.8091 13.1935 19.5853 15.8652 19.5853 18.953C19.5853 22.0812 18.7888 24.7566 17.3015 26.6651C15.8024 28.5888 13.6317 29.6906 11.0076 29.6906C8.6445 29.6906 6.67421 28.7541 5.38988 27.2145ZM40.0055 23.2751C40.3209 23.4176 40.4632 23.7873 40.3246 24.1045C38.7476 27.715 35.4944 29.6906 31.2984 29.6906C28.2183 29.6906 25.6756 28.7515 23.9052 26.9127C22.1376 25.077 21.2165 22.4243 21.2165 19.1459C21.2165 15.8515 22.1257 13.1119 23.8514 11.1881C25.5846 9.2559 28.0803 8.21539 31.1055 8.21539C34.0234 8.21539 36.4048 9.06315 38.0539 10.7653C39.7002 12.4646 40.5318 14.9277 40.5318 17.9888V20.1101C40.5318 20.4593 40.2487 20.7424 39.8995 20.7424H27.0312C27.1586 21.9275 27.6003 22.8734 28.2523 23.5464C29.0154 24.3342 30.1168 24.8005 31.4912 24.8005C33.3868 24.8005 34.8183 23.8444 35.5726 21.9929C35.6375 21.8338 35.7642 21.7079 35.9238 21.6442C36.0833 21.5805 36.2619 21.5845 36.4185 21.6552L40.0055 23.2751ZM26.3956 20.7424C26.677 23.6184 28.6474 25.4328 31.4912 25.4328C33.4907 25.4328 35.0605 24.4742 35.9558 22.6795C36.0277 22.5355 36.0952 22.3862 36.1582 22.2315L39.7452 23.8514C39.7123 23.9266 39.6787 24.0012 39.6443 24.0749C39.5893 24.1927 39.5323 24.3085 39.4735 24.4224C37.9258 27.4164 35.0397 29.0583 31.2984 29.0583C25.3972 29.0583 21.8488 25.4713 21.8488 19.1459C21.8488 12.7818 25.3586 8.84769 31.1055 8.84769C36.6982 8.84769 39.8995 12.0876 39.8995 17.9888V20.1101H26.3614C26.364 20.3261 26.3755 20.537 26.3956 20.7424ZM35.3097 16.7545C35.3106 16.6791 35.3106 16.6045 35.3097 16.5307C35.3093 16.4972 35.3086 16.4639 35.3078 16.4308C35.2371 13.4787 33.6705 11.9333 30.9898 11.9333C28.2929 11.9333 26.6687 13.6096 26.3987 16.4308C26.3791 16.6356 26.3667 16.8464 26.3614 17.0631H35.3097V16.7545ZM34.6754 16.4308C34.6416 15.1171 34.2897 14.1892 33.7381 13.5836C33.1508 12.9387 32.2514 12.5656 30.9898 12.5656C29.6924 12.5656 28.7384 12.9925 28.0919 13.7182C27.533 14.3458 27.1564 15.2506 27.0341 16.4308H34.6754ZM49.9641 16.716L53.744 17.4102C57.4467 18.0659 59.0666 19.9173 59.0666 22.9643C59.0666 26.5899 56.1739 29.0583 51.1598 29.0583C46.7628 29.0583 43.4844 27.207 42.2887 23.8128L45.7214 22.27C45.7909 22.4469 45.8676 22.6175 45.9515 22.7818C46.8912 24.6238 48.7227 25.6642 51.2369 25.6642C53.6283 25.6642 54.8625 24.6614 54.8625 23.2728C54.8625 21.8843 54.014 21.3443 52.0855 21.0358L48.6527 20.4187C45.0657 19.763 43.1373 17.8731 43.1373 14.7875C43.1373 11.3162 46.1071 8.84769 51.0055 8.84769C55.1325 8.84769 58.2181 10.5062 59.1438 13.2832L55.9425 15.0189C55.9299 14.9953 55.9172 14.9718 55.9043 14.9485C54.9705 13.2541 53.2851 12.2033 50.7741 12.2033C48.6142 12.2033 47.3799 13.0132 47.3799 14.5175C47.3799 15.8288 48.2671 16.4074 49.9641 16.716ZM53.8542 16.7876L50.0784 16.0941L50.0772 16.0939C49.2576 15.9448 48.7391 15.7458 48.4306 15.499C48.1643 15.286 48.0122 15.0048 48.0122 14.5175C48.0122 13.9667 48.2235 13.5885 48.6208 13.3204C49.053 13.0287 49.7578 12.8356 50.7741 12.8356C53.1106 12.8356 54.5798 13.8075 55.3846 15.3164C55.4638 15.4651 55.5991 15.5759 55.7604 15.6244C55.9218 15.6729 56.0958 15.655 56.2438 15.5747L59.4451 13.8391C59.7148 13.6929 59.8406 13.3743 59.7436 13.0833C58.6939 9.93411 55.2613 8.21539 51.0055 8.21539C48.4564 8.21539 46.3408 8.85732 44.8469 10.0163C43.3398 11.1855 42.505 12.8538 42.505 14.7875C42.505 16.4724 43.0367 17.8843 44.1005 18.9591C45.1516 20.021 46.6667 20.6984 48.5391 21.0407L51.9736 21.6581L51.9856 21.6601C52.9343 21.8119 53.4926 22.0061 53.8127 22.2513C54.0768 22.4536 54.2302 22.7299 54.2302 23.2728C54.2302 23.7547 54.0274 24.1615 53.5844 24.4708C53.119 24.7959 52.3551 25.0319 51.2369 25.0319C48.7143 25.0319 47.0483 23.9182 46.3099 22.0388C46.2467 21.8778 46.1203 21.7498 45.9601 21.6845C45.7999 21.6192 45.62 21.6224 45.4622 21.6933L42.0295 23.2361C41.7297 23.3708 41.5831 23.7129 41.6923 24.0229C43.0052 27.7498 46.5903 29.6906 51.1598 29.6906C53.7634 29.6906 55.8932 29.0502 57.3863 27.8664C58.8945 26.6706 59.6989 24.9611 59.6989 22.9643C59.6989 21.3248 59.26 19.9299 58.2551 18.858C57.2609 17.7975 55.7835 17.1295 53.8562 16.788C53.8556 16.7878 53.8549 16.7877 53.8542 16.7876ZM84.6936 21.6915C84.6936 26.2042 86.5064 29.0583 91.2505 29.0583C93.4848 29.0583 95.4623 27.9543 96.5966 26.249C96.8525 25.8642 97.0655 25.4488 97.2289 25.0085V28.5955H101.626V9.31053H96.9974V19.9944C96.9974 23.2343 95.3004 25.3556 92.7162 25.3556C90.5177 25.3556 89.322 23.8128 89.322 20.9972V9.31053H84.6936V21.6915ZM96.5966 27.2899V28.5955C96.5966 28.9447 96.8796 29.2278 97.2289 29.2278H101.626C101.975 29.2278 102.258 28.9447 102.258 28.5955V9.31053C102.258 8.96132 101.975 8.67823 101.626 8.67823H96.9974C96.6482 8.67823 96.3651 8.96132 96.3651 9.31053V19.9944C96.3651 21.5099 95.968 22.6991 95.3319 23.4953C94.7062 24.2784 93.8187 24.7233 92.7162 24.7233C91.7792 24.7233 91.1289 24.4035 90.6938 23.8441C90.239 23.2593 89.9543 22.3288 89.9543 20.9972V9.31053C89.9543 8.96132 89.6712 8.67823 89.322 8.67823H84.6936C84.3444 8.67823 84.0613 8.96132 84.0613 9.31053V21.6915C84.0613 24.0156 84.5253 26.0286 85.7038 27.4677C86.9025 28.9316 88.7468 29.6906 91.2505 29.6906C93.3807 29.6906 95.3079 28.7721 96.5966 27.2899ZM112.224 28.5955C112.224 28.9447 111.941 29.2278 111.592 29.2278H106.963C106.614 29.2278 106.331 28.9447 106.331 28.5955V9.31053C106.331 8.96132 106.614 8.67823 106.963 8.67823H111.399C111.748 8.67823 112.031 8.96132 112.031 9.31053V10.7976C112.491 10.2303 113.014 9.75134 113.602 9.36523C114.789 8.58683 116.197 8.21539 117.801 8.21539C120.042 8.21539 121.835 8.92069 123.049 10.4046C124.245 11.8652 124.798 13.9816 124.798 16.6388V28.5955C124.798 28.9447 124.515 29.2278 124.165 29.2278H119.537C119.188 29.2278 118.905 28.9447 118.905 28.5955V17.1017C118.905 15.6432 118.616 14.6736 118.141 14.0772C117.688 13.5091 116.988 13.1827 115.911 13.1827C114.751 13.1827 113.863 13.6364 113.246 14.4658C112.612 15.3183 112.224 16.6247 112.224 18.3745V28.5955ZM112.031 11.8777C111.801 12.2368 111.59 12.6282 111.399 13.0518V9.31053H106.963V28.5955H111.592V18.3745C111.592 14.7103 113.212 12.5504 115.911 12.5504C118.341 12.5504 119.537 14.0546 119.537 17.1017V28.5955H124.165V16.6388C124.165 11.4704 122.006 8.84769 117.801 8.84769C115.246 8.84769 113.33 9.8498 112.031 11.8777ZM141.53 0.632294H146.159V28.5955H141.762V25.1242C141.584 25.5455 141.373 25.9377 141.129 26.2983C139.948 28.0503 138.022 29.0583 135.591 29.0583C130.962 29.0583 127.838 25.0085 127.838 18.9916C127.838 12.9361 131.155 8.84769 135.976 8.84769C138.061 8.84769 139.746 9.56812 140.898 11.0534C141.131 11.3538 141.342 11.6856 141.53 12.049V0.632294ZM140.898 10.0942C139.648 8.82838 137.959 8.21539 135.976 8.21539C133.371 8.21539 131.156 9.32685 129.607 11.2524C128.065 13.1673 127.206 15.8531 127.206 18.9916C127.206 22.1033 128.013 24.7663 129.478 26.6672C130.952 28.5811 133.073 29.6906 135.591 29.6906C137.897 29.6906 139.815 28.8416 141.129 27.3348V28.5955C141.129 28.9447 141.413 29.2278 141.762 29.2278H146.159C146.508 29.2278 146.791 28.9447 146.791 28.5955V0.632294C146.791 0.283088 146.508 0 146.159 0H141.53C141.181 0 140.898 0.283088 140.898 0.632294V10.0942ZM6.83576 23.5494C7.45895 24.3977 8.3654 24.8776 9.58052 24.8776C10.8192 24.8776 11.762 24.3625 12.42 23.4062C13.0976 22.4213 13.4995 20.9246 13.4995 18.953C13.4995 17.0195 13.1071 15.5209 12.432 14.5252C11.7766 13.5584 10.8335 13.0284 9.58052 13.0284C8.3873 13.0284 7.48013 13.5062 6.85076 14.3656C6.20408 15.2485 5.81584 16.5861 5.81584 18.3359V19.6473C5.81584 21.3591 6.19468 22.6767 6.83576 23.5494ZM78.6929 26.857C76.8772 28.7249 74.3313 29.6906 71.4126 29.6906C68.4937 29.6906 65.9567 28.7247 64.1504 26.8557C62.3452 24.9879 61.3307 22.2817 61.3307 18.9144C61.3307 15.5654 62.3459 12.8776 64.1522 11.0243C65.9592 9.17037 68.4956 8.21539 71.4126 8.21539C74.3294 8.21539 76.8747 9.17017 78.691 11.023C80.5072 12.8757 81.5331 15.5636 81.5331 18.9144C81.5331 22.2834 80.508 24.9898 78.6929 26.857ZM68.4578 23.5088C69.1309 24.4359 70.1068 24.9162 71.4126 24.9162C72.7192 24.9162 73.7061 24.4351 74.3888 23.5059C75.093 22.5476 75.5244 21.042 75.5244 18.9144C75.5244 16.7865 75.0928 15.303 74.392 14.3658C73.7128 13.4575 72.727 12.9898 71.4126 12.9898C70.0991 12.9898 69.1242 13.4568 68.4547 14.3629C67.7624 15.2998 67.3394 16.7839 67.3394 18.9144C67.3394 21.0445 67.7622 22.5508 68.4578 23.5088ZM134.385 23.4009C135.049 24.3644 135.993 24.8776 137.21 24.8776C138.361 24.8776 139.272 24.4026 139.914 23.541C140.571 22.6603 140.975 21.3318 140.975 19.6087V18.3745C140.975 16.5689 140.569 15.2243 139.911 14.3472C139.269 13.492 138.352 13.0284 137.172 13.0284C135.948 13.0284 135.016 13.5278 134.365 14.4677C133.694 15.4368 133.292 16.9225 133.292 18.9144C133.292 20.9035 133.702 22.4104 134.385 23.4009ZM9.58052 25.5099C6.76491 25.5099 5.18354 23.2343 5.18354 19.6473V18.3359C5.18354 14.6717 6.80348 12.3961 9.58052 12.3961C12.5118 12.3961 14.1318 14.9417 14.1318 18.953C14.1318 23.0414 12.4733 25.5099 9.58052 25.5099ZM71.4126 29.0583C76.9667 29.0583 80.9008 25.3942 80.9008 18.9144C80.9008 12.4733 76.9667 8.84769 71.4126 8.84769C65.8586 8.84769 61.963 12.4733 61.963 18.9144C61.963 25.3942 65.8586 29.0583 71.4126 29.0583ZM71.4126 25.5485C68.4427 25.5485 66.7071 23.3114 66.7071 18.9144C66.7071 14.5175 68.4427 12.3575 71.4126 12.3575C74.3825 12.3575 76.1567 14.5175 76.1567 18.9144C76.1567 23.3114 74.3825 25.5485 71.4126 25.5485ZM132.659 18.9144C132.659 23.0414 134.356 25.5099 137.21 25.5099C139.91 25.5099 141.607 23.2343 141.607 19.6087V18.3745C141.607 14.5946 139.91 12.3961 137.172 12.3961C134.318 12.3961 132.659 14.7875 132.659 18.9144Z" fill="#FFFEF9"/>
</svg>
